<svg width="162" height="34" viewBox="0 0 162 34" fill="none" xmlns="http://www.w3.org/2000/svg">
<path fill-rule="evenodd" clip-rule="evenodd" d="M15.4531 8.97037L0.20704 18.0808V9.8837L15.4531 0.320395V8.97037Z" fill="url(#paint0_linear_2581_2)"/>
<path fill-rule="evenodd" clip-rule="evenodd" d="M0.207031 18.4425L15.4531 27.553V19.3559L0.207031 9.79256V18.4425Z" fill="#EF5366"/>
<path fill-rule="evenodd" clip-rule="evenodd" d="M29.6647 15.1981L14.4187 6.08765V14.2848L29.6647 23.8481V15.1981Z" fill="url(#paint1_linear_2581_2)"/>
<path fill-rule="evenodd" clip-rule="evenodd" d="M14.4187 24.6703L29.6647 15.5598V23.7569L14.4187 33.3202V24.6703Z" fill="#EF5366"/>
<path fill-rule="evenodd" clip-rule="evenodd" d="M35.3534 20.9051H39.2594C39.3126 22.0237 40.2426 23.0152 41.9963 23.0152C43.564 23.0152 44.6535 22.3034 44.6801 21.1593C44.7066 20.3712 44.3346 19.6847 42.4746 19.1762L40.2692 18.5915C36.2303 17.3966 35.5394 15.1339 35.5394 13.5576C35.5394 10.4305 38.3294 8.32031 41.8369 8.32031C45.3709 8.32031 48.0281 10.3288 48.0281 13.6847H44.1486C44.1486 12.5152 43.3249 11.7017 41.7837 11.7017C40.4286 11.7017 39.4189 12.4135 39.4189 13.4559C39.4189 13.9135 39.6049 14.7525 41.3852 15.2356L43.564 15.8966C48.0015 17.1169 48.6392 19.5068 48.5861 21.1847C48.5329 24.6678 45.2381 26.3203 41.9963 26.3203C38.0106 26.3203 35.3534 24.0576 35.3534 20.9051ZM51.838 8.5237H56.3877V26.0407H52.5083V10.4917L51.838 8.5237ZM76.8641 8.5237L71.3903 19.8118L65.8634 8.5237H61.6427L62.3938 10.4972L60.3896 26.0407H64.2957L65.5977 15.5407L69.9023 24.0322H72.9049L77.1829 15.5407L78.4584 26.0407H82.3644L80.1324 8.5237H76.8641ZM86.3663 26.0407V10.6441L85.6528 8.5237H97.8187V11.8034H90.2724V15.7949H96.251V19.0491H90.2724V26.0407H86.3663ZM109.42 22.6084C106.391 22.6084 104.026 20.244 104.026 17.3203C104.026 14.3966 106.391 12.0068 109.42 12.0068C112.449 12.0068 114.841 14.3966 114.841 17.3203C114.841 20.244 112.449 22.6084 109.42 22.6084ZM100.147 17.3203C100.147 12.3373 104.239 8.32031 109.42 8.32031C114.628 8.32031 118.72 12.3373 118.72 17.3203C118.72 22.2525 114.628 26.2949 109.42 26.2949C104.239 26.2949 100.147 22.2525 100.147 17.3203ZM126.575 11.8034H129.976C131.438 11.8034 132.182 13.1762 132.182 14.2695C132.182 15.4135 131.384 16.7356 129.87 16.7356H126.575V11.8034ZM131.677 19.8373L136.685 26.0407H132.009L127.452 19.9898H126.575V26.0407H122.669V10.5546L121.906 8.5237H130.162C134.307 8.5237 136.247 11.3966 136.247 14.2695C136.247 16.761 134.812 19.2017 131.677 19.8373ZM155.707 8.32031L150.233 19.6084L144.706 8.32031H140.485L141.236 10.2938L139.232 25.8373H143.138L144.44 15.3373L148.745 23.8288H151.748L156.026 15.3373L157.301 25.8373H161.207L158.975 8.32031H155.707Z" fill="#EF5366"/>
<defs>
<linearGradient id="paint0_linear_2581_2" x1="8.21652" y1="0.967113" x2="-3.11369" y2="5.88892" gradientUnits="userSpaceOnUse">
<stop stop-color="#EF5366"/>
<stop offset="1" stop-color="#D71E23"/>
</linearGradient>
<linearGradient id="paint1_linear_2581_2" x1="27.1509" y1="24.894" x2="17.0657" y2="20.3147" gradientUnits="userSpaceOnUse">
<stop stop-color="#D71E23"/>
<stop offset="1" stop-color="#EF5366"/>
</linearGradient>
</defs>
</svg>
